<svg version="1.2" baseProfile="tiny-ps" xmlns="http://www.w3.org/2000/svg" viewBox="0 0 800 800" width="512" height="512">
	<title>logo</title>
	<style>
		tspan { white-space:pre }
		.shp0 { fill: #2b2d42 } 
	</style>
	<g id="Logo Claro">
		<path id="Mango" class="shp0" d="M550 641L592 601L686 695L645 736L550 641Z" />
		<path id="Lupa" fill-rule="evenodd" class="shp0" d="M407 212C578 212.55 661.37 351.56 660 464C658.33 600.37 553.67 714.7 407 717.55C266 717.37 155 601.37 154 464C153.24 359.55 232 211.43 407 212ZM407 647.55C521.5 647.55 591 549.55 589.5 464C588 378.45 507 282.55 407 282.05C308.8 281.56 223.47 369.06 224 464C224.5 553.05 299.5 647.55 407 647.55Z" />
		<path id="V12" class="shp0" d="M141.94 123.94C284.75 93.53 508 95.55 648.75 121.03C648.75 121.03 673.25 149.78 643 172C643 172 665 191.55 675 366.05C675 366.05 654.5 301.05 605 258C605 258 601.41 231.6 597 222C580.5 186.05 572.04 176.51 543 169C462 148.05 336 149.55 259 169C229.91 176.35 217.78 184.86 201 227C196 239.55 195 273 195 273C140 329.55 125 414 125 414C126.5 198.55 151 176 151 176C110.25 147.03 141.94 123.94 141.94 123.94Z" />
	</g>
</svg>